<svg xmlns="http://www.w3.org/2000/svg" xmlns:xlink="http://www.w3.org/1999/xlink" fill="none" version="1.1" width="99.5" height="100" viewBox="0 0 99.5 100"><g style="mix-blend-mode:passthrough"><g style="mix-blend-mode:passthrough"><path d="M99.5,49.7C99.5,88.7465,88.7465,100,49.7,100C10.6534,100,0,88.7465,0,49.7C0,10.6535,10.6534,0,49.7,0C88.7465,0,99.5,10.6535,99.5,49.7Z" fill="#E2F1FF" fill-opacity="1"/></g><g><path d="M28,30.182740000000003C28,25.66355,31.60972,22,36.0625,22L62.9375,22C67.3904,22,71,25.66355,71,30.182740000000003L71,73.9015C71,77.2294,67.2937,79.1649,64.6255,77.2307L49.5,66.2656L34.37437,77.2307C31.706220000000002,79.1649,28,77.2294,28,73.9015L28,30.182740000000003Z" fill="#2F78FD" fill-opacity="1"/></g></g></svg>